HIERARCHY
ROOT Hips
{
  OFFSET 2.26061 22.2878 23.7974
  CHANNELS 6 Xposition Yposition Zposition Zrotation Xrotation Yrotation
  JOINT LeftUpLeg
  {
    OFFSET 8.64259 1.95398 -2.38835
    CHANNELS 3 Zrotation Xrotation Yrotation
    JOINT LeftLeg
    {
      OFFSET 43.7702 0 0
      CHANNELS 3 Zrotation Xrotation Yrotation
      JOINT LeftFoot
      {
        OFFSET 40.6238 0 0
        CHANNELS 3 Zrotation Xrotation Yrotation
        JOINT LeftToeBase
        {
          OFFSET 12.7242 0 0
          CHANNELS 3 Zrotation Xrotation Yrotation
          End Site
          {
            OFFSET 0 0 0
          }
        }
      }
    }
  }
  JOINT RightUpLeg
  {
    OFFSET -8.2249 1.95398 -2.59336
    CHANNELS 3 Zrotation Xrotation Yrotation
    JOINT RightLeg
    {
      OFFSET 43.5653 0 0
      CHANNELS 3 Zrotation Xrotation Yrotation
      JOINT RightFoot
      {
        OFFSET 40.6238 0 0
        CHANNELS 3 Zrotation Xrotation Yrotation
        JOINT RightToeBase
        {
          OFFSET 12.7242 0 0
          CHANNELS 3 Zrotation Xrotation Yrotation
          End Site
          {
            OFFSET 0 0 0
          }
        }
      }
    }
  }
  JOINT Spine
  {
    OFFSET 0.165834 0.87714 6.61349
    CHANNELS 3 Zrotation Xrotation Yrotation
    JOINT Spine1
    {
      OFFSET 7.38963 1.71661e-005 0
      CHANNELS 3 Zrotation Xrotation Yrotation
      JOINT Spine2
      {
        OFFSET 11.9445 1.14441e-005 0
        CHANNELS 3 Zrotation Xrotation Yrotation
        JOINT Spine3
        {
          OFFSET 14.7254 4.19617e-005 0
          CHANNELS 3 Zrotation Xrotation Yrotation
          JOINT Spine4
          {
            OFFSET 10.9679 0 0
            CHANNELS 3 Zrotation Xrotation Yrotation
            JOINT RightShoulder
            {
              OFFSET 2.46616 -1.6653 3.69651
              CHANNELS 3 Zrotation Xrotation Yrotation
              JOINT RightArm
              {
                OFFSET 13.0012 0 0
                CHANNELS 3 Zrotation Xrotation Yrotation
                JOINT RightForeArm
                {
                  OFFSET 28.7848 1.52588e-005 0
                  CHANNELS 3 Zrotation Xrotation Yrotation
                  JOINT RightHand
                  {
                    OFFSET 26.5688 1.52588e-005 0
                    CHANNELS 3 Zrotation Xrotation Yrotation
                    End Site
                    {
                      OFFSET 0 0 0
                    }
                  }
                }
              }
            }
            JOINT LeftShoulder
            {
              OFFSET 2.38034 -1.29275 -3.7523
              CHANNELS 3 Zrotation Xrotation Yrotation
              JOINT LeftArm
              {
                OFFSET 16.3182 6.10351e-005 0
                CHANNELS 3 Zrotation Xrotation Yrotation
                JOINT LeftForeArm
                {
                  OFFSET 27.0901 0 0
                  CHANNELS 3 Zrotation Xrotation Yrotation
                  JOINT LeftHand
                  {
                    OFFSET 24.5451 1.52588e-005 0
                    CHANNELS 3 Zrotation Xrotation Yrotation
                    End Site
                    {
                      OFFSET 0 0 0
                    }
                  }
                }
              }
            }
            JOINT Neck
            {
              OFFSET 5.0226 -0.0266342 0
              CHANNELS 3 Zrotation Xrotation Yrotation
              JOINT Head
              {
                OFFSET 6.69363 2.86102e-005 0
                CHANNELS 3 Zrotation Xrotation Yrotation
                End Site
                {
                  OFFSET 0 0 0
                }
              }
            }
          }
        }
      }
    }
  }
}
MOTION
Frames:	12
Frame Time:	0.0416667
-3.79249 97.9747 -9.7807 76.7794 -49.0281 80.5884 -172.357 35.6864 90.9271 -7.37048 6.82277 -3.49012 39.5723 -12.8575 -11.435 39.796 9.55809 14.9802 178.176 0.00457302 90.0005 -65.5318 -1.68596 -5.57758 30.8384 5.71122 6.76868 20.508 0.71718 -8.21232 1.56539 7.24227 -89.8461 12.3945 3.18368 -0.0555606 0.727444 3.17818 -0.195778 -21.8372 3.05306 0.904747 -1.82451 3.05306 0.904742 94.4788 -48.0421 -94.2291 31.8307 -28.0172 18.4345 -16.6165 3.56326 -104.49 -31.8676 0.317389 -5.89114 -92.7101 -49.6137 74.5919 -44.652 10.5111 50.773 5.90083 -3.45048 -92.007 43.5813 1.77709 0.0320548 3.62741 -2.73539 2.72365 2.24914 -3.25946 -3.14453 
2.50957 95.5345 -3.0841 80.7941 -47.1717 82.1082 -171.163 32.7337 87.5923 -15.1041 14.6763 -4.21006 39.5994 -12.269 -13.1415 43.2204 13.3098 17.5259 177.953 5.60801 89.7902 -83.4611 0.908185 -3.78595 29.2459 5.08168 6.23263 19.9792 0.405539 -5.98395 1.19829 7.48534 -89.614 11.8999 2.5646 0.494762 0.231414 2.58388 0.381337 -22.3201 2.29728 1.24302 -2.30744 2.29727 1.24301 94.5063 -49.6699 -93.9334 31.5786 -26.0813 20.01 -11.2209 -0.955279 -98.975 -30.4769 0.879025 -8.27911 -94.7044 -50.909 72.0035 -40.9421 9.76471 47.6875 7.17267 -2.86278 -90.7286 43.0236 2.24689 1.22077 1.07192 -2.49937 0.461538 4.06493 -2.65538 -1.81222 
8.62944 92.8997 3.36969 82.8755 -45.281 82.4107 -170.476 32.9085 85.073 -29.4678 26.5903 -5.82052 53.899 -3.92058 2.31394 38.1168 7.45054 3.74048 176.128 14.7452 89.3355 -99.9405 4.82681 -2.29024 27.0746 3.33641 4.46553 20.3025 0.338233 -5.50167 0.803657 7.65618 -89.3154 11.5513 1.91914 1.1667 -0.118725 1.96866 1.08108 -22.6571 1.47982 1.68954 -2.64448 1.47984 1.68954 95.0429 -52.092 -92.7701 29.9623 -25.099 20.5551 -11.2812 -1.89378 -94.9637 -29.8031 0.590518 -7.14282 -97.1694 -51.5636 68.6263 -36.5319 9.07005 44.0539 7.80078 -2.65309 -90.2031 42.3659 1.68075 -0.0676416 -0.575684 -2.10303 -2.76316 5.9307 -1.77604 0.0560009 
14.7248 90.1852 9.22698 83.4156 -46.3963 81.3795 -169.139 33.4898 82.849 -45.0137 18.9776 -5.70318 66.4923 6.32698 3.45646 32.3033 2.75094 0.486667 176.613 27.8599 88.8478 -113.97 7.28163 -2.04843 23.1567 1.78976 2.90866 21.4745 0.480871 -6.59108 0.457211 7.79299 -88.9695 11.2722 1.38971 1.91458 -0.399355 1.4726 1.85159 -22.9252 0.750203 2.24358 -2.91256 0.750205 2.24358 94.4673 -52.3325 -93.6039 30.6474 -24.0491 21.2855 -11.0538 -5.50294 -89.065 -32.0737 0.319856 -5.86181 -98.1173 -52.8433 67.6862 -31.4746 8.8854 38.9493 8.9286 -2.43062 -90.4517 43.5654 2.38056 1.45681 0.538583 -0.763407 -4.62896 6.42641 -0.104152 1.13747 
20.3921 88.1972 14.912 82.3496 -44.9809 79.5855 -169.933 31.8201 80.4468 -52.1039 18.3855 -4.23996 70.9467 11.3869 7.76527 37.9259 7.22583 1.56616 175.868 43.418 90.2131 -122.25 5.01084 -2.38807 19.2874 2.4071 3.7765 24.178 0.44506 -6.42901 -0.112638 7.98827 -88.7743 10.8863 0.342363 2.40463 -0.786795 0.447831 2.38725 -23.3042 -0.395931 2.39641 -3.29153 -0.395936 2.3964 93.5463 -52.5297 -94.956 30.5334 -22.6375 22.4467 -9.28818 -7.6632 -83.0197 -33.0833 0.0420563 -4.84384 -102.229 -53.8683 62.2889 -24.2553 7.68683 31.2763 11.2411 -2.52152 -91.6369 39.6528 2.94941 3.5781 6.63486 0.171893 -5.17713 2.94359 1.15895 1.85483 
27.3005 88.395 20.9504 81.0732 -43.9562 81.0882 -171.039 27.0951 82.8879 -53.1817 21.3425 -3.12727 71.833 13.2488 10.7353 42.1375 10.6494 2.13467 173.54 54.2849 95.2172 -120.929 3.01681 -2.63678 21.4066 3.16649 4.49444 25.6698 0.407778 -6.1532 -0.411484 7.99445 -89.0489 10.8855 -0.379467 1.92812 -0.786839 -0.294232 1.94294 -23.3131 -0.941316 1.72505 -3.30044 -0.941307 1.72504 93.4994 -53.5342 -94.8687 30.2183 -22.5293 26.7268 -8.27655 -9.3786 -80.4472 -33.7063 0.182443 -5.27785 -103.493 -52.3506 59.9466 -19.2687 8.93772 22.5834 11.5306 -2.60553 -92.3134 41.552 3.05516 3.44567 7.47002 0.646631 -6.20445 2.6682 1.92075 3.17775 
34.5354 90.6759 27.539 81.6545 -41.9053 83.5982 -173.209 18.5136 85.6719 -48.3038 23.6606 -1.04902 68.5777 10.4041 8.89124 45.7871 13.7611 3.35404 170.654 58.7519 98.7816 -112.476 1.9145 -2.41472 30.3591 2.94662 3.59936 25.6832 0.633204 -8.61322 -0.871116 7.97182 -89.3396 10.9381 -1.42865 1.44919 -0.732954 -1.36349 1.51066 -23.2711 -1.79812 0.952801 -3.25848 -1.79811 0.952811 93.7047 -54.673 -94.3918 30.2205 -23.2711 32.2717 -8.88342 -10.7341 -78.0739 -33.3327 0.271209 -5.48269 -101.009 -51.5127 63.1196 -16.6103 7.5264 16.1094 12.4442 -3.91125 -96.6464 40.9728 2.57308 2.32613 4.94557 1.6797 -7.11019 3.53479 3.04256 4.30026 
42.4398 94.1003 34.6315 81.4419 -41.5729 85.3575 -174.029 9.16415 89.1765 -38.8185 28.5712 0.572924 58.7976 1.38365 4.38428 48.0077 16.0459 5.96842 171.553 59.6001 99.6405 -98.5152 1.49768 -1.72501 37.534 2.75704 3.02662 24.8373 0.661685 -8.68351 -1.19944 7.85699 -89.61 11.1702 -2.20601 0.991754 -0.499354 -2.16023 1.08791 -23.0491 -2.40204 0.282563 -3.03644 -2.40203 0.28257 93.3401 -55.4459 -94.8051 30.5335 -24.8585 37.8593 -8.035 -11.6178 -76.7524 -30.2662 0.527047 -6.59084 -98.379 -50.6961 66.5947 -16.2403 5.5011 12.6484 13.4747 -5.31946 -102.361 40.0258 2.53263 2.37332 2.35094 2.86922 -7.6886 3.83259 4.24893 5.71874 
50.1748 97.0865 41.8187 82.159 -40.448 86.6006 -173.853 -0.920716 90.2466 -26.3344 31.2316 1.60042 41.6171 -10.523 -6.3785 47.3231 15.3183 4.89716 171.989 57.8437 98.3424 -81.8757 2.1531 -0.582272 40.3433 3.4021 3.54866 24.5732 0.672159 -8.72276 -1.53136 7.82761 -89.8289 11.2303 -2.96813 0.632491 -0.437455 -2.93742 0.762615 -22.9997 -3.02087 -0.289617 -2.98706 -3.02087 -0.289616 93.7758 -55.7875 -94.1241 31.0202 -25.4588 43.0741 -6.21756 -11.5257 -75.8462 -29.2594 0.542564 -6.8209 -98.2638 -50.6513 66.7475 -16.0191 2.46383 11.3905 14.1666 -6.81127 -108.445 37.3423 2.13948 1.80335 0.555119 3.43105 -7.59012 4.22224 4.77678 6.865 
58.0714 99.7369 49.2791 81.616 -39.672 87.1179 -172.501 -7.27711 94.4461 -17.693 32.167 2.07153 29.2379 -16.279 -14.5305 29.0106 -0.626497 7.19942 173.085 54.2529 97.0678 -61.9041 -0.246498 0.542638 41.8427 4.17325 4.16863 21.84 0.858204 -9.62405 -1.75262 7.72772 -90.0858 11.4266 -3.52715 0.186762 -0.239581 -3.51553 0.342005 -22.8117 -3.42003 -0.883215 -2.79902 -3.42003 -0.883214 93.2358 -55.206 -94.9935 32.6202 -24.3894 48.5136 -5.35977 -10.3481 -77.341 -27.6505 0.344526 -6.30055 -98.3565 -51.0723 66.7561 -15.6717 0.441887 10.625 13.8276 -7.90531 -114.093 38.1288 1.51815 -0.00670704 -0.428785 3.78189 -6.76363 4.32061 5.03871 7.64532 
66.1897 101.188 57.0077 79.7524 -39.9557 85.2715 -172.236 -8.0008 94.4733 -23.9278 26.8832 2.48831 33.1281 -15.005 -10.2897 23.514 -5.92702 9.21807 175.659 50.384 95.0243 -41.1513 -3.86307 0.47634 42.7855 4.54906 4.44204 23.5045 0.561158 -7.46021 -1.90335 7.50403 -90.1231 11.8748 -3.84275 0.166014 0.209471 -3.83172 0.335225 -22.3693 -3.71475 -0.9982 -2.35662 -3.71474 -0.998219 92.1911 -54.2561 -96.6739 34.5023 -23.1848 53.2298 -7.42311 -9.51024 -79.0761 -27.0552 0.491925 -6.89844 -97.7246 -51.0036 67.6447 -15.9168 -0.401684 10.6773 13.711 -9.59316 -119.55 35.812 0.823267 -1.73027 -1.0277 4.21708 -6.64803 4.49212 5.51746 8.75594 
73.9261 101.61 64.8143 78.331 -39.9142 82.0519 -172.093 -7.19494 93.4223 -34.3573 19.4718 2.13225 37.3586 -12.8296 -8.45336 26.0825 -3.70222 10.3691 176.025 46.1813 93.075 -23.6742 -2.68906 0.823457 45.9167 3.84668 3.58985 21.5063 0.531347 -6.97514 -2.06466 7.29152 -89.9241 12.3103 -4.06716 0.610101 0.645487 -4.03634 0.788797 -21.9404 -4.06217 -0.642527 -1.92771 -4.06217 -0.642533 92.8901 -53.1882 -95.8275 35.4076 -22.5978 54.5308 -9.06215 -9.01515 -80.2546 -25.944 0.625199 -7.53915 -96.4769 -49.9086 69.1064 -17.4354 0.637204 10.8025 14.1811 -11.0364 -122.994 35.7007 1.51048 0.267028 0.330362 4.37504 -6.62699 2.62345 5.60551 8.81975 
